<svg width="261" height="72" viewBox="0 0 261 72" fill="none" xmlns="http://www.w3.org/2000/svg">
<path d="M80.8203 31.5234L78.5781 34.2852V40H75.2969V20.2031H78.5781V30.0469L86.125 20.2031H90.0352L82.9258 28.9531L90.4727 40H86.5625L80.8203 31.5234ZM99.7969 24.7969C101.237 24.7969 102.349 25.2253 103.133 26.082C103.917 26.9206 104.309 28.1055 104.309 29.6367V40H101.082V30.0469C101.082 28.5703 100.262 27.832 98.6211 27.832C98.056 27.832 97.5273 27.9232 97.0352 28.1055C96.543 28.2878 96.0599 28.5703 95.5859 28.9531V40H92.3594V18.9453H95.5859V26.6289C96.7526 25.4076 98.1562 24.7969 99.7969 24.7969ZM113.332 24.7969C115.1 24.7969 116.477 25.2161 117.461 26.0547C118.464 26.8932 118.965 28.0872 118.965 29.6367V40H116.066V37.9219C115.137 39.5078 113.669 40.3008 111.664 40.3008C110.224 40.3008 109.112 39.9089 108.328 39.125C107.544 38.3411 107.152 37.2474 107.152 35.8438C107.152 34.0755 107.836 32.7812 109.203 31.9609C110.589 31.1224 112.776 30.694 115.766 30.6758V29.9922C115.766 28.4609 114.772 27.6953 112.785 27.6953C111.618 27.6953 110.461 27.9505 109.312 28.4609L108.492 25.9453C110.078 25.1797 111.691 24.7969 113.332 24.7969ZM112.457 37.5391C113.751 37.5391 114.854 37.0286 115.766 36.0078V32.8906C113.852 32.9271 112.457 33.1641 111.582 33.6016C110.707 34.0208 110.27 34.6862 110.27 35.5977C110.27 36.8919 110.999 37.5391 112.457 37.5391ZM127.004 40.3281C126.001 40.3281 125.026 40.2005 124.078 39.9453C123.148 39.6901 122.328 39.3346 121.617 38.8789L122.738 36.2539C124.087 37.0742 125.509 37.4844 127.004 37.4844C128.754 37.4844 129.629 36.9375 129.629 35.8438C129.629 35.4062 129.474 35.0508 129.164 34.7773C128.872 34.5039 128.398 34.2852 127.742 34.1211L125.801 33.6562C124.434 33.3464 123.431 32.8633 122.793 32.207C122.173 31.5326 121.863 30.6211 121.863 29.4727C121.863 28.0143 122.337 26.875 123.285 26.0547C124.251 25.2344 125.609 24.8242 127.359 24.8242C128.234 24.8242 129.109 24.9336 129.984 25.1523C130.859 25.3711 131.652 25.6719 132.363 26.0547L131.133 28.6523C129.857 27.9961 128.581 27.668 127.305 27.668C125.737 27.668 124.953 28.1693 124.953 29.1719C124.953 29.5729 125.108 29.9102 125.418 30.1836C125.728 30.4388 126.211 30.6484 126.867 30.8125L128.809 31.2773C130.194 31.6055 131.197 32.1068 131.816 32.7812C132.436 33.4557 132.746 34.3763 132.746 35.543C132.746 37.056 132.245 38.2318 131.242 39.0703C130.24 39.9089 128.827 40.3281 127.004 40.3281ZM143.301 24.7969C144.741 24.7969 145.853 25.2253 146.637 26.082C147.421 26.9206 147.812 28.1055 147.812 29.6367V40H144.586V30.0469C144.586 28.5703 143.766 27.832 142.125 27.832C141.56 27.832 141.031 27.9232 140.539 28.1055C140.047 28.2878 139.564 28.5703 139.09 28.9531V40H135.863V18.9453H139.09V26.6289C140.257 25.4076 141.66 24.7969 143.301 24.7969ZM156.836 24.7969C158.604 24.7969 159.98 25.2161 160.965 26.0547C161.967 26.8932 162.469 28.0872 162.469 29.6367V40H159.57V37.9219C158.641 39.5078 157.173 40.3008 155.168 40.3008C153.728 40.3008 152.616 39.9089 151.832 39.125C151.048 38.3411 150.656 37.2474 150.656 35.8438C150.656 34.0755 151.34 32.7812 152.707 31.9609C154.092 31.1224 156.28 30.694 159.27 30.6758V29.9922C159.27 28.4609 158.276 27.6953 156.289 27.6953C155.122 27.6953 153.965 27.9505 152.816 28.4609L151.996 25.9453C153.582 25.1797 155.195 24.7969 156.836 24.7969ZM155.961 37.5391C157.255 37.5391 158.358 37.0286 159.27 36.0078V32.8906C157.355 32.9271 155.961 33.1641 155.086 33.6016C154.211 34.0208 153.773 34.6862 153.773 35.5977C153.773 36.8919 154.503 37.5391 155.961 37.5391ZM177.863 25.1523L173.16 39.4531C172.632 41.0755 171.775 42.4062 170.59 43.4453C169.423 44.5026 167.837 45.3594 165.832 46.0156L164.738 43.2812C166.014 42.8255 167.026 42.3424 167.773 41.832C168.539 41.3216 169.15 40.7201 169.605 40.0273L164.656 25.1523H167.965L171.301 36.5L174.582 25.1523H177.863ZM187.352 24.8516C187.99 24.8516 188.555 24.9701 189.047 25.207L188.391 28.2695C187.844 28.0872 187.251 27.9961 186.613 27.9961C185.957 27.9961 185.401 28.1146 184.945 28.3516C184.49 28.5885 184.089 28.9714 183.742 29.5V40H180.516V25.1523H183.441V27.4219C184.353 25.7083 185.656 24.8516 187.352 24.8516ZM207.477 23.1562H202.445V40H199.164V23.1562H194.16V20.2031H207.477V23.1562ZM213.793 40.3555C211.715 40.3555 210.12 39.6992 209.008 38.3867C207.896 37.0742 207.34 35.1419 207.34 32.5898C207.34 30.0378 207.896 28.1055 209.008 26.793C210.138 25.4622 211.742 24.7969 213.82 24.7969C215.898 24.7969 217.493 25.4622 218.605 26.793C219.717 28.1055 220.273 30.0378 220.273 32.5898C220.273 35.1419 219.708 37.0742 218.578 38.3867C217.466 39.6992 215.871 40.3555 213.793 40.3555ZM213.793 37.4844C214.85 37.4844 215.643 37.0742 216.172 36.2539C216.701 35.4336 216.965 34.2122 216.965 32.5898C216.965 29.3268 215.917 27.6953 213.82 27.6953C211.706 27.6953 210.648 29.3268 210.648 32.5898C210.648 34.2122 210.913 35.4336 211.441 36.2539C211.97 37.0742 212.754 37.4844 213.793 37.4844ZM229.133 40.3555C227.055 40.3555 225.46 39.6992 224.348 38.3867C223.236 37.0742 222.68 35.1419 222.68 32.5898C222.68 30.0378 223.236 28.1055 224.348 26.793C225.478 25.4622 227.082 24.7969 229.16 24.7969C231.238 24.7969 232.833 25.4622 233.945 26.793C235.057 28.1055 235.613 30.0378 235.613 32.5898C235.613 35.1419 235.048 37.0742 233.918 38.3867C232.806 39.6992 231.211 40.3555 229.133 40.3555ZM229.133 37.4844C230.19 37.4844 230.983 37.0742 231.512 36.2539C232.04 35.4336 232.305 34.2122 232.305 32.5898C232.305 29.3268 231.257 27.6953 229.16 27.6953C227.046 27.6953 225.988 29.3268 225.988 32.5898C225.988 34.2122 226.253 35.4336 226.781 36.2539C227.31 37.0742 228.094 37.4844 229.133 37.4844ZM246.031 24.7969C247.745 24.7969 249.076 25.4805 250.023 26.8477C250.971 28.2148 251.445 30.1289 251.445 32.5898C251.445 35.0508 250.962 36.9648 249.996 38.332C249.03 39.681 247.672 40.3555 245.922 40.3555C245.065 40.3555 244.281 40.1823 243.57 39.8359C242.878 39.4714 242.312 38.9701 241.875 38.332V40H238.949V18.9453H242.176V26.7656C243.105 25.4531 244.391 24.7969 246.031 24.7969ZM245.156 37.457C247.143 37.457 248.137 35.8711 248.137 32.6992C248.137 29.4544 247.098 27.832 245.02 27.832C244.473 27.832 243.971 27.9414 243.516 28.1602C243.078 28.3789 242.632 28.7344 242.176 29.2266V36.0898C242.559 36.5273 243.005 36.8646 243.516 37.1016C244.044 37.3385 244.591 37.457 245.156 37.457ZM254.836 25.1523H258.062V40H254.836V25.1523ZM256.449 23.0195C255.829 23.0195 255.337 22.8464 254.973 22.5C254.626 22.1536 254.453 21.6888 254.453 21.1055C254.453 20.4857 254.626 20.0117 254.973 19.6836C255.319 19.3372 255.811 19.1641 256.449 19.1641C257.069 19.1641 257.552 19.3372 257.898 19.6836C258.263 20.0299 258.445 20.4948 258.445 21.0781C258.445 21.6979 258.272 22.181 257.926 22.5273C257.579 22.8555 257.087 23.0195 256.449 23.0195Z" fill="white"/>
<path d="M76.3594 54.168V59.3438H81.75V60.6719H76.3594V67H74.9141V52.8594H82.9609V54.168H76.3594ZM89.2695 56.3555C89.7253 56.3555 90.1615 56.4401 90.5781 56.6094L90.2461 57.9961C89.7513 57.8529 89.2956 57.7812 88.8789 57.7812C88.3711 57.7812 87.9219 57.8919 87.5312 58.1133C87.1536 58.3346 86.8151 58.6732 86.5156 59.1289V67H85.1094V56.5703H86.418V58.0156C87.1732 56.9089 88.1237 56.3555 89.2695 56.3555ZM96.0664 67.2539C94.6862 67.2539 93.625 66.7917 92.8828 65.8672C92.1406 64.9297 91.7695 63.569 91.7695 61.7852C91.7695 60.0013 92.1406 58.6471 92.8828 57.7227C93.625 56.7852 94.6927 56.3164 96.0859 56.3164C97.4661 56.3164 98.5273 56.7852 99.2695 57.7227C100.012 58.6471 100.383 60.0013 100.383 61.7852C100.383 63.569 100.012 64.9297 99.2695 65.8672C98.5273 66.7917 97.4596 67.2539 96.0664 67.2539ZM96.0664 65.9844C97.0039 65.9844 97.7135 65.6328 98.1953 64.9297C98.6771 64.2135 98.918 63.1654 98.918 61.7852C98.918 60.4049 98.6771 59.3633 98.1953 58.6602C97.7135 57.944 97.0104 57.5859 96.0859 57.5859C95.1484 57.5859 94.4388 57.944 93.957 58.6602C93.4753 59.3633 93.2344 60.4049 93.2344 61.7852C93.2344 63.1654 93.4753 64.2135 93.957 64.9297C94.4388 65.6328 95.1419 65.9844 96.0664 65.9844ZM107.844 56.3164C108.859 56.3164 109.654 56.6094 110.227 57.1953C110.799 57.7812 111.086 58.5885 111.086 59.6172V67H109.68V59.7148C109.68 59.0508 109.491 58.5495 109.113 58.2109C108.736 57.8594 108.189 57.6836 107.473 57.6836C106.952 57.6836 106.47 57.7682 106.027 57.9375C105.585 58.0938 105.155 58.3542 104.738 58.7188V67H103.332V56.5703H104.641V57.6836C105.513 56.7721 106.581 56.3164 107.844 56.3164ZM118.215 67.1367C117.173 67.1367 116.385 66.8503 115.852 66.2773C115.318 65.6914 115.051 64.8255 115.051 63.6797V57.7617H113.234V56.5703H115.051V53.4453H116.457V56.5703H119.602V57.7617H116.457V63.4844C116.457 64.3047 116.613 64.9102 116.926 65.3008C117.251 65.6784 117.753 65.8672 118.43 65.8672C118.781 65.8672 119.139 65.8086 119.504 65.6914L119.738 66.9023C119.296 67.0586 118.788 67.1367 118.215 67.1367ZM121.008 60.5938H126.691V61.8633H121.008V60.5938ZM137.316 61.3359C137.316 61.6484 137.297 61.9219 137.258 62.1562H130.305C130.357 63.3932 130.656 64.3307 131.203 64.9688C131.763 65.5938 132.557 65.9062 133.586 65.9062C134.562 65.9062 135.461 65.6328 136.281 65.0859L136.828 66.2188C136.424 66.5443 135.93 66.7982 135.344 66.9805C134.771 67.1497 134.159 67.2344 133.508 67.2344C132.049 67.2344 130.91 66.7526 130.09 65.7891C129.283 64.8255 128.879 63.4909 128.879 61.7852C128.879 60.0664 129.257 58.7253 130.012 57.7617C130.767 56.7982 131.815 56.3164 133.156 56.3164C134.471 56.3164 135.493 56.7591 136.223 57.6445C136.952 58.5299 137.316 59.7604 137.316 61.3359ZM133.117 57.5859C132.284 57.5859 131.633 57.8724 131.164 58.4453C130.708 59.0052 130.435 59.8451 130.344 60.9648H135.891C135.878 59.8971 135.624 59.0703 135.129 58.4844C134.647 57.8854 133.977 57.5859 133.117 57.5859ZM144.66 56.3164C145.676 56.3164 146.47 56.6094 147.043 57.1953C147.616 57.7812 147.902 58.5885 147.902 59.6172V67H146.496V59.7148C146.496 59.0508 146.307 58.5495 145.93 58.2109C145.552 57.8594 145.005 57.6836 144.289 57.6836C143.768 57.6836 143.286 57.7682 142.844 57.9375C142.401 58.0938 141.971 58.3542 141.555 58.7188V67H140.148V56.5703H141.457V57.6836C142.329 56.7721 143.397 56.3164 144.66 56.3164ZM159.016 51.9609V67H157.707V65.6719C157.355 66.1927 156.919 66.5898 156.398 66.8633C155.891 67.1237 155.318 67.2539 154.68 67.2539C153.443 67.2539 152.479 66.7656 151.789 65.7891C151.099 64.8125 150.754 63.4518 150.754 61.707C150.754 60.0143 151.118 58.6927 151.848 57.7422C152.59 56.7917 153.612 56.3164 154.914 56.3164C155.448 56.3164 155.943 56.4206 156.398 56.6289C156.867 56.8372 157.271 57.1302 157.609 57.5078V51.9609H159.016ZM155.031 65.8867C155.539 65.8867 156.001 65.7891 156.418 65.5938C156.835 65.3854 157.232 65.0599 157.609 64.6172V58.8164C157.271 58.4388 156.867 58.1458 156.398 57.9375C155.93 57.7161 155.435 57.6055 154.914 57.6055C154.029 57.6055 153.358 57.9505 152.902 58.6406C152.447 59.3307 152.219 60.3529 152.219 61.707C152.219 63.0872 152.453 64.1289 152.922 64.832C153.404 65.5352 154.107 65.8867 155.031 65.8867ZM174.738 51.9609V67H173.43V65.6719C173.078 66.1927 172.642 66.5898 172.121 66.8633C171.613 67.1237 171.04 67.2539 170.402 67.2539C169.165 67.2539 168.202 66.7656 167.512 65.7891C166.822 64.8125 166.477 63.4518 166.477 61.707C166.477 60.0143 166.841 58.6927 167.57 57.7422C168.312 56.7917 169.335 56.3164 170.637 56.3164C171.171 56.3164 171.665 56.4206 172.121 56.6289C172.59 56.8372 172.993 57.1302 173.332 57.5078V51.9609H174.738ZM170.754 65.8867C171.262 65.8867 171.724 65.7891 172.141 65.5938C172.557 65.3854 172.954 65.0599 173.332 64.6172V58.8164C172.993 58.4388 172.59 58.1458 172.121 57.9375C171.652 57.7161 171.158 57.6055 170.637 57.6055C169.751 57.6055 169.081 57.9505 168.625 58.6406C168.169 59.3307 167.941 60.3529 167.941 61.707C167.941 63.0872 168.176 64.1289 168.645 64.832C169.126 65.5352 169.829 65.8867 170.754 65.8867ZM186.086 61.3359C186.086 61.6484 186.066 61.9219 186.027 62.1562H179.074C179.126 63.3932 179.426 64.3307 179.973 64.9688C180.533 65.5938 181.327 65.9062 182.355 65.9062C183.332 65.9062 184.23 65.6328 185.051 65.0859L185.598 66.2188C185.194 66.5443 184.699 66.7982 184.113 66.9805C183.54 67.1497 182.928 67.2344 182.277 67.2344C180.819 67.2344 179.68 66.7526 178.859 65.7891C178.052 64.8255 177.648 63.4909 177.648 61.7852C177.648 60.0664 178.026 58.7253 178.781 57.7617C179.536 56.7982 180.585 56.3164 181.926 56.3164C183.241 56.3164 184.263 56.7591 184.992 57.6445C185.721 58.5299 186.086 59.7604 186.086 61.3359ZM181.887 57.5859C181.053 57.5859 180.402 57.8724 179.934 58.4453C179.478 59.0052 179.204 59.8451 179.113 60.9648H184.66C184.647 59.8971 184.393 59.0703 183.898 58.4844C183.417 57.8854 182.746 57.5859 181.887 57.5859ZM196.398 56.5703L192.746 67H191.184L187.512 56.5703H189.055L191.984 65.4375L194.875 56.5703H196.398ZM206.34 61.3359C206.34 61.6484 206.32 61.9219 206.281 62.1562H199.328C199.38 63.3932 199.68 64.3307 200.227 64.9688C200.786 65.5938 201.581 65.9062 202.609 65.9062C203.586 65.9062 204.484 65.6328 205.305 65.0859L205.852 66.2188C205.448 66.5443 204.953 66.7982 204.367 66.9805C203.794 67.1497 203.182 67.2344 202.531 67.2344C201.073 67.2344 199.934 66.7526 199.113 65.7891C198.306 64.8255 197.902 63.4909 197.902 61.7852C197.902 60.0664 198.28 58.7253 199.035 57.7617C199.79 56.7982 200.839 56.3164 202.18 56.3164C203.495 56.3164 204.517 56.7591 205.246 57.6445C205.975 58.5299 206.34 59.7604 206.34 61.3359ZM202.141 57.5859C201.307 57.5859 200.656 57.8724 200.188 58.4453C199.732 59.0052 199.458 59.8451 199.367 60.9648H204.914C204.901 59.8971 204.647 59.0703 204.152 58.4844C203.671 57.8854 203 57.5859 202.141 57.5859ZM211.32 67.1172C209.862 67.1172 209.133 66.3685 209.133 64.8711V51.9609H210.539V64.8125C210.539 65.1771 210.624 65.444 210.793 65.6133C210.962 65.7695 211.236 65.8477 211.613 65.8477C211.835 65.8477 212.095 65.8216 212.395 65.7695L212.531 66.9609C212.141 67.0651 211.737 67.1172 211.32 67.1172ZM218.488 67.2539C217.108 67.2539 216.047 66.7917 215.305 65.8672C214.562 64.9297 214.191 63.569 214.191 61.7852C214.191 60.0013 214.562 58.6471 215.305 57.7227C216.047 56.7852 217.115 56.3164 218.508 56.3164C219.888 56.3164 220.949 56.7852 221.691 57.7227C222.434 58.6471 222.805 60.0013 222.805 61.7852C222.805 63.569 222.434 64.9297 221.691 65.8672C220.949 66.7917 219.882 67.2539 218.488 67.2539ZM218.488 65.9844C219.426 65.9844 220.135 65.6328 220.617 64.9297C221.099 64.2135 221.34 63.1654 221.34 61.7852C221.34 60.4049 221.099 59.3633 220.617 58.6602C220.135 57.944 219.432 57.5859 218.508 57.5859C217.57 57.5859 216.861 57.944 216.379 58.6602C215.897 59.3633 215.656 60.4049 215.656 61.7852C215.656 63.1654 215.897 64.2135 216.379 64.9297C216.861 65.6328 217.564 65.9844 218.488 65.9844ZM230.09 56.3164C231.327 56.3164 232.29 56.8047 232.98 57.7812C233.671 58.7578 234.016 60.1185 234.016 61.8633C234.016 63.556 233.645 64.8776 232.902 65.8281C232.173 66.7786 231.158 67.2539 229.855 67.2539C229.322 67.2539 228.82 67.1497 228.352 66.9414C227.896 66.7331 227.499 66.4401 227.16 66.0625V71.043H225.754V56.5703H227.062V57.8984C227.414 57.3776 227.844 56.987 228.352 56.7266C228.872 56.4531 229.452 56.3164 230.09 56.3164ZM229.855 65.9648C230.741 65.9648 231.411 65.6198 231.867 64.9297C232.323 64.2396 232.551 63.2174 232.551 61.8633C232.551 60.4831 232.31 59.4414 231.828 58.7383C231.359 58.0352 230.663 57.6836 229.738 57.6836C229.23 57.6836 228.768 57.7878 228.352 57.9961C227.935 58.1914 227.538 58.5104 227.16 58.9531V64.7539C227.499 65.1315 227.902 65.431 228.371 65.6523C228.84 65.8607 229.335 65.9648 229.855 65.9648ZM244.641 61.3359C244.641 61.6484 244.621 61.9219 244.582 62.1562H237.629C237.681 63.3932 237.98 64.3307 238.527 64.9688C239.087 65.5938 239.882 65.9062 240.91 65.9062C241.887 65.9062 242.785 65.6328 243.605 65.0859L244.152 66.2188C243.749 66.5443 243.254 66.7982 242.668 66.9805C242.095 67.1497 241.483 67.2344 240.832 67.2344C239.374 67.2344 238.234 66.7526 237.414 65.7891C236.607 64.8255 236.203 63.4909 236.203 61.7852C236.203 60.0664 236.581 58.7253 237.336 57.7617C238.091 56.7982 239.139 56.3164 240.48 56.3164C241.796 56.3164 242.818 56.7591 243.547 57.6445C244.276 58.5299 244.641 59.7604 244.641 61.3359ZM240.441 57.5859C239.608 57.5859 238.957 57.8724 238.488 58.4453C238.033 59.0052 237.759 59.8451 237.668 60.9648H243.215C243.202 59.8971 242.948 59.0703 242.453 58.4844C241.971 57.8854 241.301 57.5859 240.441 57.5859ZM251.633 56.3555C252.089 56.3555 252.525 56.4401 252.941 56.6094L252.609 57.9961C252.115 57.8529 251.659 57.7812 251.242 57.7812C250.734 57.7812 250.285 57.8919 249.895 58.1133C249.517 58.3346 249.178 58.6732 248.879 59.1289V67H247.473V56.5703H248.781V58.0156C249.536 56.9089 250.487 56.3555 251.633 56.3555Z" fill="white"/>
<path d="M51.0292 0H37.6865H37.4595L11.3514 35.7996V0H0V72H11.3514V51.2151L19.1092 41.1725L38.9741 72H52.6378L26.5297 31.9075L42.8238 10.8679H55.1351V72H66.4865V10.8679H84V0H51.0292Z" fill="#61DAFB"/>
</svg>
