<svg width="191" height="191" viewBox="0 0 191 191" fill="none" xmlns="http://www.w3.org/2000/svg">
<path d="M36.1075 173.935L35.7526 177.707L48.5088 178.907L48.3735 180.346L35.6173 179.146L35.2624 182.918L33.9401 182.794L34.7852 173.81L36.1075 173.935Z" fill="white"/>
<path d="M40.2004 162.448C40.3982 161.438 40.8396 160.709 41.5248 160.259C42.1971 159.807 43.0444 159.681 44.0667 159.881L51.3118 161.301L51.0414 162.681L43.8922 161.28C42.5633 161.02 41.7561 161.618 41.4708 163.075C41.273 164.084 41.4351 165.051 41.9572 165.976L50.0839 167.568L49.8136 168.948L35.0551 166.057L35.3254 164.677L40.8455 165.758C40.1826 164.74 39.9676 163.636 40.2004 162.448Z" fill="white"/>
<path d="M49.8888 145.36C50.188 145.451 50.4441 145.548 50.6572 145.653L48.6482 152.31C49.8475 152.618 50.8315 152.602 51.6003 152.262C52.3605 151.907 52.8891 151.237 53.1863 150.252C53.4685 149.317 53.4663 148.378 53.1798 147.435L54.4223 147.239C54.6173 147.719 54.7174 148.266 54.7226 148.88C54.7192 149.477 54.6234 150.087 54.4352 150.711C54.0139 152.107 53.2235 153.058 52.064 153.565C50.9083 154.06 49.514 154.061 47.881 153.568C46.2355 153.071 45.0607 152.322 44.3565 151.321C43.6522 150.319 43.4939 149.177 43.8814 147.893C44.2614 146.634 44.9805 145.783 46.0388 145.341C47.0972 144.899 48.3805 144.905 49.8888 145.36ZM45.0855 148.297C44.8447 149.095 44.9308 149.801 45.3439 150.415C45.7482 151.013 46.4732 151.518 47.5189 151.928L49.1216 146.618C48.0957 146.322 47.2308 146.326 46.5268 146.631C45.8142 146.919 45.3338 147.474 45.0855 148.297Z" fill="white"/>
<path d="M62.2235 130.749C61.9476 131.324 61.607 131.854 61.2014 132.339C60.7842 132.817 60.3479 133.2 59.8926 133.487L59.0202 132.506C59.9422 131.908 60.6284 131.14 61.0788 130.2C61.4166 129.496 61.5408 128.906 61.4514 128.429C61.3559 127.936 61.0499 127.565 60.5333 127.318C60.1341 127.126 59.7636 127.086 59.4218 127.196C59.08 127.307 58.735 127.575 58.3868 128L57.4878 129.106C56.8772 129.868 56.262 130.353 55.6423 130.561C55.0282 130.757 54.3748 130.689 53.6821 130.357C52.8251 129.946 52.291 129.344 52.0798 128.549C51.8744 127.743 52.0165 126.829 52.5063 125.808C52.7541 125.291 53.0635 124.812 53.4348 124.369C53.7943 123.92 54.1754 123.547 54.5782 123.249L55.4251 124.283C54.6084 124.902 54.0114 125.605 53.6342 126.392C53.3301 127.026 53.2285 127.569 53.3291 128.022C53.418 128.469 53.7032 128.808 54.1845 129.039C54.5602 129.219 54.919 129.254 55.2608 129.143C55.5908 129.027 55.9299 128.756 56.2782 128.331L57.1772 127.225C57.7878 126.463 58.406 125.987 59.0318 125.796C59.6633 125.594 60.3371 125.664 61.0533 126.007C61.9338 126.43 62.4771 127.058 62.6831 127.894C62.889 128.729 62.7359 129.681 62.2235 130.749Z" fill="white"/>
<path d="M68.9153 118.118C68.3872 119.016 67.7409 119.55 66.9764 119.72C66.2007 119.883 65.319 119.674 64.3314 119.093L59.2304 116.092L58.3095 117.658L57.2826 117.054L58.2035 115.488L55.5099 113.904L56.2229 112.692L58.9165 114.276L60.5108 111.566L61.5377 112.17L59.9434 114.88L64.876 117.782C65.5831 118.198 66.1842 118.37 66.6793 118.299C67.1698 118.209 67.5867 117.873 67.93 117.289C68.1082 116.986 68.2393 116.648 68.3231 116.274L69.4857 116.686C69.3959 117.147 69.2058 117.625 68.9153 118.118Z" fill="white"/>
<path d="M66.0893 102.749C66.7393 101.837 67.4887 101.268 68.3377 101.042C69.1942 100.805 70.0624 101 70.9424 101.627L76.9542 105.913L76.1946 106.978L75.1608 106.241C75.5736 107.367 75.3681 108.508 74.5443 109.664C73.9472 110.501 73.2559 111 72.4705 111.159C71.6927 111.309 70.9061 111.1 70.1109 110.533C69.1036 109.815 68.66 108.867 68.78 107.689C68.8893 106.504 69.566 105.027 70.8101 103.26L70.2216 102.84C69.6703 102.447 69.1267 102.324 68.5911 102.47C68.0523 102.597 67.5486 102.99 67.0801 103.647C66.5888 104.336 66.2664 105.114 66.1128 105.98L64.9272 105.59C65.0822 104.566 65.4695 103.618 66.0893 102.749ZM73.676 108.661C74.001 108.205 74.2072 107.736 74.2945 107.255C74.3818 106.773 74.3601 106.254 74.2294 105.697L71.7643 103.94C70.7999 105.315 70.2462 106.44 70.1033 107.313C69.9497 108.179 70.2016 108.847 70.859 109.315C71.3679 109.678 71.8607 109.805 72.3374 109.697C72.8141 109.589 73.2603 109.244 73.676 108.661Z" fill="white"/>
<path d="M84.1906 97.4472C83.2368 98.5504 82.1272 99.0972 80.8618 99.0875C79.6049 99.068 78.3214 98.4919 77.0114 97.3593C76.1939 96.6524 75.5983 95.8879 75.2248 95.0658C74.8512 94.2436 74.7184 93.4316 74.8264 92.6299C74.933 91.8098 75.2801 91.0599 75.8677 90.3803C76.1913 90.006 76.5826 89.673 77.0414 89.3812C77.4904 89.0809 77.9539 88.8534 78.4319 88.6986L78.946 89.866C78.0477 90.2082 77.343 90.6748 76.8321 91.2657C76.2104 91.9848 75.9909 92.7761 76.1736 93.6398C76.3563 94.5036 76.9254 95.3485 77.8808 96.1745C78.9446 97.0943 79.9311 97.5857 80.8404 97.649C81.7483 97.6938 82.5557 97.3075 83.2625 96.49C83.7906 95.8793 84.1298 95.1484 84.2803 94.2975L85.4822 94.6394C85.4506 95.0941 85.3186 95.5652 85.0863 96.0529C84.8639 96.5491 84.5653 97.0139 84.1906 97.4472Z" fill="white"/>
<path d="M89.0868 84.8505L89.1494 87.1173L91.4065 89.4719L90.3913 90.4451L79.9843 79.5884L80.9995 78.6153L87.9465 85.8625L87.5871 78.6855L88.842 77.4826L89.0349 83.3852L96.2145 84.8631L94.9596 86.066L89.0868 84.8505Z" fill="white"/>
<path d="M102.899 79.6345C102.399 80.031 101.861 80.3582 101.284 80.6161C100.699 80.8639 100.14 81.0171 99.6046 81.0759L99.2498 79.8116C100.34 79.6778 101.294 79.2873 102.11 78.6399C102.722 78.1543 103.092 77.678 103.22 77.2108C103.35 76.7253 103.237 76.2582 102.881 75.8093C102.606 75.4625 102.29 75.2639 101.935 75.2137C101.579 75.1634 101.152 75.2532 100.652 75.4829L99.3597 76.0846C98.4775 76.502 97.7122 76.6686 97.0638 76.5846C96.4257 76.4925 95.8679 76.1455 95.3905 75.5437C94.7997 74.799 94.5833 74.0234 94.7411 73.2167C94.9092 72.4019 95.437 71.6425 96.3245 70.9385C96.7733 70.5825 97.2615 70.2866 97.7892 70.0508C98.3088 69.8049 98.8148 69.6361 99.3073 69.5446L99.6161 70.8453C98.6107 71.0445 97.7663 71.4152 97.0828 71.9574C96.532 72.3944 96.2028 72.8384 96.0952 73.2894C95.9795 73.7302 96.0875 74.1597 96.4193 74.5779C96.6783 74.9043 96.9856 75.0927 97.3412 75.143C97.6888 75.183 98.1122 75.0882 98.6113 74.8584L99.9041 74.2567C100.786 73.8394 101.551 73.6819 102.197 73.7842C102.853 73.8784 103.428 74.2366 103.922 74.8589C104.529 75.6239 104.742 76.427 104.562 77.2682C104.381 78.1093 103.827 78.8981 102.899 79.6345Z" fill="white"/>
<path d="M111.779 56.0728L113.025 55.34L120.194 67.5284L118.948 68.2612L111.779 56.0728Z" fill="white"/>
<path d="M138.208 47.3888L142.141 57.0482L140.929 57.5417L140.458 56.3841C140.125 57.6024 139.343 58.462 138.113 58.9629C137.184 59.3411 136.35 59.3644 135.611 59.0329C134.871 58.7014 134.307 58.0594 133.919 57.1067L131.135 50.2691L132.437 49.7387L135.185 56.4858C135.435 57.1009 135.796 57.5024 136.266 57.6905C136.731 57.8665 137.29 57.8219 137.941 57.5567C138.447 57.3505 138.863 57.0759 139.187 56.7329C139.511 56.39 139.767 55.9483 139.955 55.4079L136.905 47.9192L138.208 47.3888Z" fill="white"/>
<path d="M151.645 54.1408C151.034 54.3233 150.413 54.4272 149.782 54.4525C149.147 54.4654 148.57 54.3998 148.051 54.2556L148.192 52.95C149.254 53.2308 150.284 53.2223 151.282 52.9243C152.031 52.7008 152.551 52.396 152.844 52.0098C153.145 51.6073 153.213 51.1316 153.05 50.5827C152.923 50.1584 152.704 49.857 152.392 49.6782C152.081 49.4994 151.651 49.424 151.102 49.4519L149.678 49.5304C148.704 49.5902 147.931 49.4607 147.361 49.1419C146.802 48.8194 146.413 48.2901 146.194 47.5539C145.922 46.6431 146.009 45.8426 146.455 45.1522C146.914 44.4582 147.686 43.9491 148.771 43.6251C149.32 43.4612 149.883 43.3678 150.461 43.3449C151.035 43.3095 151.567 43.3408 152.058 43.4388L151.862 44.7611C150.855 44.5727 149.933 44.6032 149.097 44.8528C148.423 45.0539 147.953 45.3438 147.685 45.7226C147.414 46.0889 147.355 46.5278 147.508 47.0394C147.627 47.4386 147.842 47.7277 148.154 47.9064C148.461 48.0727 148.89 48.1419 149.439 48.114L150.862 48.0354C151.836 47.9757 152.605 48.1133 153.167 48.4483C153.741 48.7796 154.142 49.3257 154.369 50.0868C154.648 51.0226 154.548 51.8475 154.068 52.5614C153.588 53.2754 152.781 53.8019 151.645 54.1408Z" fill="white"/>
<path d="M168.371 44.1273C168.432 44.4338 168.466 44.7058 168.474 44.9433L161.655 46.3006C161.947 47.5036 162.424 48.3646 163.085 48.8836C163.756 49.3873 164.596 49.5387 165.605 49.3379C166.562 49.1473 167.39 48.7037 168.088 48.0072L168.846 49.0115C168.513 49.4095 168.077 49.7552 167.538 50.0483C167.01 50.3262 166.426 50.5286 165.787 50.6557C164.357 50.9404 163.146 50.6903 162.153 49.9054C161.173 49.118 160.517 47.8879 160.184 46.215C159.848 44.5293 159.957 43.1402 160.509 42.0478C161.062 40.9554 161.996 40.2782 163.311 40.0164C164.601 39.7597 165.69 39.9944 166.578 40.7204C167.466 41.4465 168.064 42.5821 168.371 44.1273ZM163.521 41.2692C162.703 41.4318 162.121 41.8399 161.773 42.4933C161.435 43.1314 161.331 44.0084 161.46 45.1245L166.9 44.0417C166.679 42.997 166.269 42.2357 165.669 41.7576C165.08 41.2642 164.364 41.1014 163.521 41.2692Z" fill="white"/>
<path d="M181.86 33.0981L183.314 48.0667L182.012 48.1932L181.883 46.8713C181.584 47.4237 181.188 47.8611 180.696 48.1836C180.216 48.4919 179.658 48.6769 179.023 48.7385C177.792 48.8581 176.786 48.4652 176.004 47.56C175.223 46.6547 174.748 45.3337 174.579 43.5971C174.416 41.9123 174.651 40.5616 175.285 39.5451C175.932 38.5273 176.903 37.9555 178.199 37.8296C178.73 37.778 179.233 37.8339 179.707 37.9972C180.193 38.1592 180.623 38.4118 180.997 38.7549L180.461 33.234L181.86 33.0981ZM179.241 47.3438C179.746 47.2947 180.197 47.1528 180.593 46.9181C180.987 46.6705 181.351 46.3081 181.684 45.831L181.123 40.0574C180.75 39.7143 180.32 39.4617 179.833 39.2996C179.345 39.1246 178.842 39.0623 178.324 39.1126C177.442 39.1982 176.808 39.6065 176.421 40.3374C176.035 41.0683 175.907 42.1077 176.037 43.4555C176.171 44.8292 176.505 45.8434 177.039 46.4979C177.587 47.1512 178.321 47.4331 179.241 47.3438Z" fill="white"/>
</svg>
