<svg xmlns="http://www.w3.org/2000/svg" viewBox="0 0 100 100"><defs><style>.cls-1{fill:#ffd600;}.cls-2{fill:#000001;}</style></defs><g id="Layer_2" data-name="Layer 2"><g id="Layer_1-2" data-name="Layer 1"><path class="cls-1" d="M0,96.15V3.85A3.85,3.85,0,0,1,3.85,0h92.3A3.85,3.85,0,0,1,100,3.85v92.3A3.85,3.85,0,0,1,96.15,100H3.85A3.85,3.85,0,0,1,0,96.15Z"/><path class="cls-2" d="M68.16,78.56c1.92,3.12,4,6.11,8.44,6.11,3.72,0,5.67-1.84,5.67-4.4,0-3.06-2-4.14-6.11-5.93l-2.24-1c-6.47-2.75-10.77-6.18-10.77-13.45,0-6.69,5.12-11.79,13.13-11.79,5.7,0,9.8,2,12.75,7.15l-7,4.46c-1.53-2.74-3.2-3.82-5.77-3.82S72,57.6,72,59.76c0,2.68,1.66,3.77,5.51,5.42l2.24,1c7.63,3.25,11.93,6.56,11.93,14,0,8-6.35,12.43-14.86,12.43-8.33,0-13.06-4.18-15.7-9.35ZM36,78.79c1.41,2.51,3.54,4.45,6.61,4.45s4.63-1.16,4.63-5.68V48.15h9.26V79c0,9.35-5.42,13.6-13.35,13.6A16.27,16.27,0,0,1,28.7,83.24Z"/></g></g></svg>