<svg xmlns="http://www.w3.org/2000/svg" viewBox="0 0 100 100"><g id="Layer_2" data-name="Layer 2"><g id="Layer_1-2" data-name="Layer 1"><path d="M46.73,0,45.21.16A50.13,50.13,0,0,0,9.28,20.88,49.37,49.37,0,0,0,.45,42.73,38.29,38.29,0,0,0,0,50a38.35,38.35,0,0,0,.45,7.28,50.22,50.22,0,0,0,34.2,40.4,53.38,53.38,0,0,0,10.56,2.19,95.66,95.66,0,0,0,9.58,0,50.76,50.76,0,0,0,18-5.27c.86-.44,1-.56.9-.66S70,89,65.57,83l-8-10.8-10-14.83C42,49.26,37.51,42.59,37.47,42.59s-.08,6.58-.1,14.62c0,14.09,0,14.65-.21,15a1.82,1.82,0,0,1-.86.89c-.32.15-.59.18-2.07.18H32.54L32.09,73a1.79,1.79,0,0,1-.65-.72l-.21-.44,0-19.59,0-19.61.3-.38a2.86,2.86,0,0,1,.73-.6c.4-.19.55-.21,2.25-.21,2,0,2.32.08,2.84.64.15.16,5.57,8.33,12.06,18.17S64.83,73.54,69.19,80.13l7.92,12,.4-.26a51.34,51.34,0,0,0,10.27-9A49.74,49.74,0,0,0,99.55,57.29,38.35,38.35,0,0,0,100,50a38.29,38.29,0,0,0-.45-7.28,50.22,50.22,0,0,0-34.2-40.4A53,53,0,0,0,54.94.15C54,.06,47.54,0,46.73,0ZM67.19,30.27a2,2,0,0,1,1,1.15c.08.25.1,5.69.08,17.93l0,17.58-3.1-4.75L62,57.43V44.65c0-8.26,0-12.9.1-13.12a2,2,0,0,1,1-1.23c.4-.21.55-.23,2.08-.23S66.87,30.09,67.19,30.27Z"/></g></g></svg>