<svg xmlns="http://www.w3.org/2000/svg" viewBox="0 0 100 110.2"><defs><style>.cls-1{fill:#8cc84b;}</style></defs><g id="Layer_2" data-name="Layer 2"><g id="Layer_1-2" data-name="Layer 1"><path class="cls-1" d="M45.49,1.18a9.2,9.2,0,0,1,9,0L95.72,24.45A8.49,8.49,0,0,1,100,31.76V78.45a8.57,8.57,0,0,1-4.6,7.46L54.34,109.08a9,9,0,0,1-9.12-.26c-4.11-2.38-8.22-4.74-12.32-7.12A7.27,7.27,0,0,1,30.52,100c.52-.71,1.46-.8,2.22-1.1a29,29,0,0,0,4.86-2.27,1.15,1.15,0,0,1,1.27.07c3.5,2,7,4.09,10.5,6.08.76.43,1.52-.14,2.16-.5Q71.67,90.89,91.84,79.52a1.34,1.34,0,0,0,.74-1.31q0-23.11,0-46.21a1.43,1.43,0,0,0-.86-1.44L50.8,7.49a1.42,1.42,0,0,0-1.6,0Q28.74,19,8.28,30.56A1.43,1.43,0,0,0,7.42,32V78.21a1.3,1.3,0,0,0,.74,1.29c3.64,2.07,7.29,4.12,10.93,6.18,2.05,1.1,4.57,1.76,6.83.91a5.21,5.21,0,0,0,3.36-4.87q0-23,0-45.94a1.16,1.16,0,0,1,1.26-1.18c1.74,0,3.5,0,5.24,0A1.21,1.21,0,0,1,36.94,36c0,15.41,0,30.82,0,46.23,0,4.11-1.68,8.57-5.48,10.58-4.68,2.43-10.46,1.91-15.08-.41-4-2-7.83-4.36-11.76-6.5A8.54,8.54,0,0,1,0,78.45V31.76a8.5,8.5,0,0,1,4.43-7.4Z"/><path class="cls-1" d="M57.43,33.52c6-.38,12.36-.23,17.73,2.71,4.16,2.26,6.47,7,6.54,11.61a1.26,1.26,0,0,1-1.36.92c-1.74,0-3.47,0-5.2,0-.73,0-1.16-.65-1.25-1.3A7.94,7.94,0,0,0,70.1,42c-3.19-1.6-6.9-1.52-10.38-1.48-2.54.13-5.28.35-7.43,1.85a4.72,4.72,0,0,0-1.57,5.26c.56,1.32,2.09,1.75,3.33,2.14,7.2,1.88,14.82,1.7,21.88,4.17,2.92,1,5.78,3,6.78,6,1.31,4.1.73,9-2.18,12.29a17.23,17.23,0,0,1-9.25,5,44.5,44.5,0,0,1-14,.59c-4.36-.5-8.91-1.64-12.27-4.62A12.85,12.85,0,0,1,40.9,63a1.16,1.16,0,0,1,1.27-1c1.74,0,3.49,0,5.23,0a1.22,1.22,0,0,1,1.25,1.21c.32,2.11,1.12,4.32,3,5.57,3.55,2.29,8,2.13,12,2.19,3.37-.15,7.14-.19,9.89-2.41A5.49,5.49,0,0,0,75,63.35c-.42-1.54-2-2.25-3.42-2.72-7.1-2.25-14.81-1.44-21.84-4-2.86-1-5.62-2.91-6.72-5.85-1.53-4.15-.82-9.28,2.4-12.46s7.68-4.38,12-4.82Z"/></g></g></svg>