<svg xmlns="http://www.w3.org/2000/svg" viewBox="0 0 500.85 446.76"><defs><style>.cls-1{fill:#61dbfb;}</style></defs><g id="Layer_2" data-name="Layer 2"><g id="Layer_1-2" data-name="Layer 1"><path class="cls-1" d="M350.18,446.76c-22.16,0-49-12-78-35.44-38.88-31.29-78.3-79.73-111-136.38s-54.95-115-62.61-164.34C90.37,58.12,99.85,21.15,125.21,6.5s62.12-4.37,103.5,28.94c38.87,31.29,78.3,79.73,111,136.38h0c32.72,56.66,54.95,115,62.61,164.33,8.15,52.49-1.33,89.46-26.69,104.1A50,50,0,0,1,350.18,446.76ZM150.88,20a30.93,30.93,0,0,0-15.67,3.85c-17.45,10.08-23.62,40.59-16.93,83.71,7.29,46.93,28.66,102.83,60.17,157.41s69.23,101,106.23,130.8c34,27.36,63.5,37.27,81,27.19s23.63-40.59,16.93-83.71c-7.29-46.93-28.66-102.83-60.17-157.4S253.17,80.8,216.17,51C190.89,30.67,168.09,20,150.88,20Z"/><path class="cls-1" d="M150.67,446.76a50,50,0,0,1-25.46-6.51c-25.36-14.64-34.84-51.61-26.69-104.1,7.66-49.31,29.89-107.67,62.61-164.33s72.13-105.09,111-136.38C313.52,2.14,350.27-8.14,375.64,6.5s34.84,51.62,26.69,104.1c-7.66,49.32-29.89,107.68-62.61,164.34h0C307,331.59,267.59,380,228.71,411.32,199.63,434.72,172.83,446.76,150.67,446.76ZM350,20c-17.21,0-40,10.7-65.29,31.05-37,29.78-74.73,76.23-106.23,130.8s-52.88,110.47-60.17,157.4c-6.69,43.12-.52,73.63,16.93,83.71s47,.17,81-27.19c37-29.78,74.73-76.23,106.23-130.8l8.66,5-8.66-5c31.51-54.58,52.88-110.48,60.17-157.41,6.7-43.12.52-73.63-16.93-83.71A30.91,30.91,0,0,0,350,20Z"/><path class="cls-1" d="M250.43,326.49c-65.43,0-127.09-9.92-173.62-27.94C27.28,279.36,0,252.67,0,223.38s27.28-56,76.81-75.17c46.53-18,108.19-27.94,173.62-27.94S377.51,130.19,424,148.21c49.53,19.18,76.81,45.88,76.81,75.17s-27.28,56-76.81,75.17C377.51,316.57,315.85,326.49,250.43,326.49Zm0-186.22c-63,0-122.11,9.44-166.4,26.59-40.69,15.76-64,36.36-64,56.52s23.34,40.75,64,56.51c44.29,17.16,103.38,26.6,166.4,26.6s122.1-9.44,166.39-26.6c40.69-15.76,64-36.35,64-56.51s-23.34-40.76-64-56.52C372.53,149.71,313.44,140.27,250.43,140.27Z"/><circle class="cls-1" cx="250.43" cy="223.38" r="42.82"/></g></g></svg>